<?xml version="1.0" encoding="UTF-8"?>
<svg width="157px" height="216px" viewBox="0 0 157 216" version="1.1" xmlns="http://www.w3.org/2000/svg" xmlns:xlink="http://www.w3.org/1999/xlink">
    <!-- Generator: Sketch 57.1 (83088) - https://sketch.com -->
    <title>Artboard</title>
    <desc>Created with Sketch.</desc>
    <defs>
        <linearGradient x1="50%" y1="0%" x2="50%" y2="100%" id="linearGradient-1">
            <stop stop-color="#59687E" offset="0%"></stop>
            <stop stop-color="#2D3747" offset="100%"></stop>
        </linearGradient>
    </defs>
    <g id="Page-1" stroke="none" stroke-width="1" fill="none" fill-rule="evenodd">
        <g id="Artboard" transform="translate(-77.000000, -640.000000)">
            <path d="M234,714.080402 C221.664872,699.065252 206.427589,691.557789 188.287695,691.557789 C180.306141,691.557789 172.914245,693.005011 166.111785,695.899497 C159.309325,698.793984 153.459297,702.728618 148.561525,707.703518 C143.663754,712.678417 139.809084,718.602981 136.9974,725.477387 C134.185717,732.351793 132.779896,739.768804 132.779896,747.728643 C132.779896,755.869387 134.185717,763.37685 136.9974,770.251256 C139.809084,777.125663 143.709103,783.095452 148.697574,788.160804 C153.686045,793.226156 159.536073,797.206016 166.247834,800.100503 C172.959595,802.994989 180.215443,804.442211 188.015598,804.442211 C205.067099,804.442211 220.395079,797.206103 234,782.733668 L234,845.688442 L228.558059,847.58794 C220.395106,850.482427 212.776465,852.608033 205.701906,853.964824 C198.627348,855.321615 191.643593,856 184.750433,856 C170.601316,856 157.041948,853.331685 144.071924,847.994975 C131.101899,842.658265 119.673937,835.150802 109.787695,825.472362 C99.9014526,815.793921 91.9653679,804.306599 85.9792028,791.01005 C79.9930377,777.713501 77,763.196059 77,747.457286 C77,731.718514 79.9476886,717.291523 85.8431542,704.175879 C91.7386199,691.060236 99.6293555,679.753816 109.515598,670.256281 C119.40184,660.758746 130.875151,653.341735 143.935875,648.005025 C156.996599,642.668315 170.692014,640 185.02253,640 C193.185483,640 201.212266,640.859288 209.10312,642.577889 C216.993974,644.296491 225.292851,646.964806 234,650.582915 L234,714.080402 Z" id="C-Copy-2" fill="#C53030" fill-rule="nonzero"></path>
            <ellipse id="Oval-Copy-9" fill="url(#linearGradient-1)" cx="189.5" cy="748" rx="33.5" ry="34"></ellipse>
        </g>
    </g>
</svg>